<?xml version="1.0" standalone="no"?>
<!DOCTYPE svg PUBLIC "-//W3C//DTD SVG 20010904//EN"
 "http://www.w3.org/TR/2001/REC-SVG-20010904/DTD/svg10.dtd">
<svg version="1.0" xmlns="http://www.w3.org/2000/svg"
 width="414.000000pt" height="250.000000pt" viewBox="0 0 414.000000 250.000000"
 preserveAspectRatio="xMidYMid meet">
<metadata>
Created by potrace 1.10, written by Peter Selinger 2001-2011
</metadata>
<g transform="translate(0.000000,250.000000) scale(0.050000,-0.050000)"
>
<path d="M3950 4600 c-894 -43 -1940 -348 -2464 -718 -178 -125 -493 -472
-479 -526 6 -23 -9 -56 -38 -85 -86 -87 -188 -537 -189 -837 -1 -701 722
-1479 1574 -1695 510 -130 2404 -135 3266 -9 843 123 1830 818 2051 1444 92
260 68 753 -51 1072 -109 292 -530 770 -783 891 -70 33 -149 84 -176 112 -26
28 -96 69 -155 91 -59 22 -146 60 -192 83 -272 140 -1391 224 -2364 177z
m1370 -220 c575 -30 1211 -203 1266 -346 6 -16 39 -34 73 -41 148 -29 694
-636 780 -866 352 -940 -402 -1873 -1749 -2166 -884 -193 -2833 -215 -3370
-38 -745 244 -1294 849 -1352 1489 -13 148 17 481 49 541 11 21 29 75 42 122
12 46 40 94 61 105 21 11 55 59 76 105 80 180 455 478 808 644 814 381 1870
525 3316 451z"/>
<path d="M5460 3851 c0 -61 371 -185 515 -173 46 4 26 61 -33 91 -163 84 -482
139 -482 82z"/>
<path d="M4489 3400 c-770 -75 -1131 -182 -1388 -413 -267 -240 -109 -584 354
-771 l115 -46 1180 2 c1580 2 1623 7 1884 261 404 393 172 833 -494 938 -244
38 -1350 57 -1651 29z m911 -417 c0 -141 10 -307 23 -369 37 -187 -40 -214
-615 -214 -850 1 -1302 47 -1403 144 -328 316 -45 459 1135 576 459 46 797 91
816 109 35 35 44 -15 44 -246z m652 125 c258 -123 156 -488 -135 -488 -143 0
-297 130 -297 250 0 163 273 313 432 238z m510 -163 c51 -132 -22 -317 -167
-424 -163 -120 -229 -73 -114 81 45 59 95 157 112 218 56 194 123 244 169 125z"/>
<path d="M4990 1600 c-144 -39 -331 -64 -1122 -150 -525 -57 -588 -67 -588
-96 0 -96 1614 70 1859 192 185 92 102 122 -149 54z"/>
<path d="M712 3376 c-215 -330 -311 -1028 -203 -1476 39 -161 257 -611 309
-639 52 -28 84 -131 93 -306 8 -157 26 -185 69 -105 53 100 166 77 350 -70
692 -554 2840 -700 4428 -301 495 125 860 248 893 303 51 82 -108 62 -508 -64
-674 -214 -1518 -295 -2823 -272 -795 15 -985 54 -1551 323 -958 454 -1323
1208 -1081 2231 40 171 77 330 83 354 13 62 -24 76 -59 22z"/>
</g>
</svg>
