<?xml version="1.0" standalone="no"?>
<!DOCTYPE svg PUBLIC "-//W3C//DTD SVG 20010904//EN"
 "http://www.w3.org/TR/2001/REC-SVG-20010904/DTD/svg10.dtd">
<svg version="1.0" xmlns="http://www.w3.org/2000/svg"
 width="450.000000" height="170.000000" viewBox="0 0 450.000000 1.000000">
<g transform="translate(0.000000,220.000000) scale(0.100000,-0.100000)">
<path d="M305 2836 c-15 -22 -16 -31 -6 -52 19 -43 50 -50 339 -80 l53 -6 60
-120 c33 -66 57 -123 53 -127 -4 -3 -8 -1 -10 4 -2 6 -32 10 -66 9 -51 0 -64
-4 -80 -23 -23 -29 -23 -36 1 -60 18 -18 64 -30 169 -46 51 -8 51 -9 92 -170
27 -106 53 -256 66 -379 7 -70 37 -109 75 -99 69 18 99 135 79 313 -11 105
-42 280 -55 313 -6 15 -1 17 37 17 59 0 204 19 248 32 70 21 91 64 45 94 -22
14 -34 15 -148 0 -67 -9 -143 -16 -169 -16 l-45 0 -42 113 c-23 61 -46 119
-51 128 -7 14 6 17 112 23 67 3 163 6 213 6 105 0 353 24 465 45 85 17 118 42
99 76 -15 30 -31 32 -121 19 -129 -18 -132 -18 -343 -31 -261 -15 -760 -6
-865 16 -41 8 -100 18 -131 21 -54 6 -58 5 -74 -20z m175 -18 c99 -21 129 -22
525 -22 400 0 576 8 728 35 83 14 117 0 83 -34 -31 -30 -332 -64 -663 -73
-134 -4 -243 -8 -243 -9 0 -1 8 -19 19 -41 10 -21 36 -88 57 -148 l39 -108
105 5 c58 3 137 11 177 18 59 11 74 10 87 0 24 -20 19 -37 -16 -54 -33 -15
-174 -35 -276 -39 -52 -2 -54 -2 -48 -27 52 -241 73 -425 57 -503 -25 -116
-89 -156 -110 -69 -4 20 -13 83 -19 141 -12 111 -48 279 -83 391 l-21 67 -92
11 c-86 11 -136 30 -136 51 0 24 34 42 72 36 21 -3 56 -9 78 -12 22 -4 40 -3
40 2 0 5 -31 70 -69 144 l-68 135 -44 6 c-24 4 -80 9 -125 13 -171 13 -234 38
-219 85 8 27 31 27 165 -1z"/>
<path d="M1315 2409 c-22 -5 -44 -15 -50 -21 -7 -7 -7 -9 1 -5 6 3 26 9 44 12
18 3 40 10 49 15 19 11 9 11 -44 -1z"/>
<path d="M1062 2035 c-1 -11 -4 -67 -6 -125 -2 -58 -6 -118 -10 -135 -4 -17 0
-12 9 12 12 32 15 71 12 155 -1 62 -4 104 -5 93z"/>
<path d="M271 2826 c-8 -9 -10 -28 -6 -50 11 -54 77 -78 251 -91 159 -11 145
-3 200 -115 27 -55 52 -99 57 -100 13 0 7 13 -46 115 l-52 100 -130 12 c-145
14 -209 27 -243 50 -20 12 -23 22 -20 54 4 44 4 44 -11 25z"/>
<path d="M1750 2744 c-105 -24 -346 -45 -567 -51 -122 -3 -220 -10 -217 -14 3
-5 80 -6 172 -3 92 3 174 5 182 5 8 1 85 8 170 16 85 9 175 18 200 20 25 2 52
7 60 10 8 3 24 8 34 10 11 2 22 6 25 8 10 11 -7 11 -59 -1z"/>
<path d="M1683 2685 c-126 -27 -182 -68 -204 -150 -20 -71 23 -145 111 -191
30 -16 57 -19 185 -18 132 0 157 3 208 23 98 39 147 94 147 166 0 68 -55 134
-137 165 -64 24 -212 26 -310 5z m294 -20 c55 -16 117 -74 129 -120 15 -62
-25 -130 -101 -168 -53 -27 -149 -39 -267 -36 -102 4 -117 7 -161 32 -114 67
-112 198 4 258 93 47 293 64 396 34z"/>
<path d="M1925 2620 c11 -5 27 -9 35 -9 9 0 8 4 -5 9 -11 5 -27 9 -35 9 -9 0
-8 -4 5 -9z"/>
<path d="M1765 2578 c-83 -16 -111 -61 -58 -95 22 -15 49 -18 143 -18 134 0
164 6 186 39 21 34 5 62 -44 76 -45 12 -158 11 -227 -2z m143 -37 c-1 -15 2
-33 6 -40 11 -17 -179 -14 -194 4 -24 28 0 43 78 50 68 5 103 10 109 14 1 0 1
-12 1 -28z m77 -6 c0 -22 -31 -33 -47 -17 -17 17 -1 44 24 40 15 -2 23 -10 23
-23z"/>
<path d="M1864 2414 c-6 -3 -47 -8 -90 -13 l-79 -8 65 -1 c36 0 83 5 105 13
22 7 33 13 25 13 -8 0 -20 -2 -26 -4z"/>
<path d="M1456 2548 c-19 -50 -12 -108 20 -156 10 -15 18 -34 16 -42 -1 -10 1
-11 4 -2 4 9 12 7 31 -8 82 -64 323 -69 480 -9 48 18 17 18 -42 0 -80 -25
-224 -35 -304 -22 -71 11 -142 49 -174 92 -24 33 -33 107 -18 150 17 49 5 46
-13 -3z"/>
<path d="M2293 2550 c-18 -11 -53 -48 -79 -82 -53 -72 -60 -80 -51 -55 23 64
-53 -58 -119 -192 -72 -146 -157 -404 -156 -473 1 -23 -4 -28 -34 -34 -19 -3
-36 -10 -39 -14 -3 -4 13 -4 35 1 34 8 43 6 61 -12 19 -19 29 -21 77 -16 33 4
62 13 71 23 15 16 14 16 -4 9 -33 -13 -119 -17 -135 -6 -28 19 -16 106 39 270
49 147 150 373 186 416 22 27 19 20 -57 -133 -75 -151 -158 -388 -165 -474 -5
-54 -4 -58 20 -69 20 -9 38 -9 84 2 65 16 67 18 97 160 l17 76 87 26 c48 15
115 33 148 41 l61 14 7 -61 c3 -33 6 -102 6 -153 0 -83 2 -94 20 -104 25 -13
78 -4 119 21 31 19 31 20 31 101 0 120 -25 317 -55 432 -66 253 -162 354 -272
286z m96 -1 c104 -36 211 -396 211 -711 0 -71 -2 -79 -24 -93 -35 -23 -91 -30
-102 -14 -5 8 -11 82 -14 165 l-5 151 -80 -17 c-44 -9 -117 -29 -163 -44 -94
-32 -93 -30 -119 -160 -15 -74 -18 -79 -51 -93 -19 -8 -48 -13 -66 -11 -28 3
-31 7 -34 41 -8 100 147 494 258 657 45 65 95 115 130 129 14 5 25 10 26 10 1
1 15 -4 33 -10z"/>
<path d="M2338 2409 c-9 -5 -30 -32 -48 -60 -29 -48 -110 -221 -124 -266 l-7
-21 58 17 c32 10 87 23 123 30 36 7 76 15 88 17 22 5 23 8 17 57 -15 109 -53
220 -79 230 -7 3 -19 1 -28 -4z m42 -53 c18 -40 50 -169 50 -202 0 -8 -4 -14
-10 -14 -5 0 -10 12 -10 28 -1 61 -57 235 -67 205 -3 -7 1 -21 7 -33 10 -18
52 -193 47 -195 -10 -6 -203 -52 -206 -50 -11 12 147 305 165 305 3 0 14 -20
24 -44z"/>
<path d="M2541 2034 c0 -11 3 -14 6 -6 3 7 2 16 -1 19 -3 4 -6 -2 -5 -13z"/>
<path d="M2551 1984 c0 -11 3 -14 6 -6 3 7 2 16 -1 19 -3 4 -6 -2 -5 -13z"/>
<path d="M2562 1858 c-2 -57 -5 -69 -24 -82 -12 -9 -18 -16 -12 -16 6 0 18 6
28 13 14 10 16 25 13 82 l-3 70 -2 -67z"/>
<path d="M2051 1814 c0 -11 3 -14 6 -6 3 7 2 16 -1 19 -3 4 -6 -2 -5 -13z"/>
<path d="M2034 1781 c-5 -5 -18 -11 -29 -14 -20 -5 -20 -5 0 -6 22 -1 52 15
44 23 -3 3 -10 2 -15 -3z"/>
<path d="M3285 2554 c-38 -9 -66 -40 -76 -82 -7 -34 -5 -53 12 -100 52 -143
92 -275 120 -396 37 -164 54 -217 80 -244 26 -28 69 -28 104 0 28 22 28 22 22
113 -4 50 -9 98 -12 106 -4 12 16 14 127 11 73 -1 142 -5 153 -7 18 -5 65 -65
65 -84 0 -4 13 -20 30 -36 21 -21 27 -32 19 -41 -7 -8 -6 -14 2 -20 8 -4 9 -3
5 4 -4 7 -2 12 3 12 6 0 16 -9 23 -20 7 -11 18 -20 25 -20 7 0 13 -4 13 -10 0
-5 12 -11 28 -11 18 -1 12 -4 -18 -9 -25 -4 -52 -5 -60 -2 -10 3 -12 2 -5 -6
14 -15 145 2 156 20 7 10 9 9 9 -4 0 -18 -17 -25 -80 -31 -23 -3 -15 -4 21 -5
56 -2 89 14 75 37 -4 5 8 11 26 13 25 2 33 8 33 23 0 15 -7 20 -27 21 -15 1
-29 -5 -32 -12 -3 -9 2 -14 14 -14 11 0 20 5 20 11 0 5 5 7 10 4 19 -12 -1
-26 -34 -23 -17 1 -38 -2 -46 -7 -13 -8 -13 -6 0 11 8 10 20 22 25 26 6 5 3 8
-7 8 -15 0 -16 4 -8 26 21 55 -15 124 -148 282 -104 124 -248 262 -345 330
-121 86 -259 140 -322 126z m146 -49 c141 -57 323 -207 499 -411 135 -156 171
-224 149 -280 -22 -58 -83 -14 -184 133 l-50 73 -172 0 c-95 0 -173 -1 -173
-2 0 -2 7 -39 15 -83 28 -155 17 -205 -45 -205 -42 0 -56 27 -90 171 -49 202
-79 308 -118 409 -44 115 -48 173 -13 201 33 27 107 25 182 -6z m449 -570 c88
-135 160 -191 198 -153 9 9 12 9 12 0 0 -13 -32 -32 -55 -32 -31 0 -72 39
-139 135 l-68 95 -154 0 c-96 0 -154 4 -154 10 0 6 60 10 159 10 l159 0 42
-65z"/>
<path d="M3381 2406 c-9 -11 -5 -31 20 -92 18 -44 42 -110 54 -149 l23 -70
154 -6 c84 -3 155 -4 158 -2 10 8 -250 253 -309 292 -70 45 -83 48 -100 27z
m84 -39 c101 -69 306 -267 277 -267 -5 0 -43 34 -83 76 -76 78 -212 187 -249
199 -11 3 -20 11 -20 16 0 14 38 1 75 -24z m75 -102 c14 -13 56 -53 94 -89
l69 -66 -104 0 -104 0 -38 108 c-21 59 -41 116 -44 127 -5 15 5 12 48 -19 30
-21 65 -49 79 -61z"/>
<path d="M3924 2035 c68 -93 96 -140 96 -163 0 -16 -4 -21 -12 -16 -10 5 -10
4 -1 -6 14 -15 33 -5 33 19 0 23 -66 124 -115 176 l-37 40 36 -50z"/>
<path d="M3491 1821 c-1 -14 -9 -33 -18 -43 -16 -18 -16 -18 0 -12 19 7 32 45
24 66 -3 7 -6 2 -6 -11z"/>
<path d="M2907 2476 c-77 -28 -164 -101 -188 -158 -6 -15 -16 -25 -22 -21 -5
3 -7 2 -4 -4 3 -5 0 -31 -8 -58 -20 -63 -19 -180 1 -238 20 -60 82 -123 152
-155 81 -36 215 -42 291 -13 59 22 80 21 34 -2 -183 -93 -447 2 -499 179 -19
66 -15 161 9 232 11 32 12 40 2 32 -7 -6 -16 -27 -20 -48 -4 -20 -10 -48 -13
-62 -14 -56 -3 -153 24 -204 29 -56 50 -78 109 -116 54 -34 91 -50 120 -50 13
0 30 -6 37 -13 7 -7 32 -11 57 -10 27 2 48 -2 54 -10 6 -8 7 -7 3 5 -4 14 3
19 32 23 20 3 45 10 54 16 10 5 23 9 29 9 13 0 40 26 37 37 -1 4 12 22 30 40
39 38 41 74 8 108 -42 42 -71 42 -116 1 -34 -30 -47 -36 -85 -36 -116 0 -220
120 -200 229 11 61 41 107 81 126 34 16 44 16 88 5 89 -23 138 -11 150 35 12
49 -30 96 -108 120 -60 18 -89 18 -139 1z m178 -40 c46 -27 59 -48 49 -78 -10
-32 -49 -40 -111 -22 -71 21 -118 8 -162 -41 -55 -63 -64 -141 -27 -220 42
-89 112 -135 206 -135 45 0 55 4 87 35 40 39 64 39 96 3 22 -26 22 -40 -4 -72
-43 -54 -93 -71 -214 -71 -97 0 -116 3 -160 25 -68 33 -127 95 -143 148 -34
114 -8 254 65 343 93 113 214 146 318 85z"/>
<path d="M3081 2386 c-8 -9 -11 -19 -7 -23 9 -9 29 13 24 27 -2 8 -8 7 -17 -4z"/>
<path d="M2956 2381 c-3 -4 6 -6 19 -3 14 2 25 6 25 8 0 8 -39 4 -44 -5z"/>
<path d="M3040 2370 c-13 -8 -12 -10 3 -10 9 0 17 5 17 10 0 12 -1 12 -20 0z"/>
<path d="M3178 1958 c15 -15 16 -31 0 -22 -7 5 -9 2 -6 -7 6 -15 0 -18 -80
-49 -18 -7 -31 -14 -29 -17 10 -9 118 40 132 60 15 21 5 47 -18 47 -7 0 -7 -4
1 -12z"/>
<path d="M3184 2410 c2 -25 16 -76 31 -115 24 -60 46 -130 60 -185 2 -8 8 -28
15 -45 12 -30 51 -214 53 -247 1 -10 5 -18 9 -18 13 0 9 -35 -4 -49 -11 -11
-10 -13 3 -8 10 3 22 -5 35 -26 10 -18 18 -35 16 -39 -1 -4 6 -4 15 -1 11 4
14 3 9 -5 -5 -9 7 -12 41 -12 58 0 95 9 87 21 -3 5 0 9 5 9 22 0 10 -30 -14
-36 -35 -9 -95 -9 -130 -1 l-30 7 30 -15 c32 -16 118 -18 148 -3 9 5 17 18 17
28 0 16 7 20 34 20 47 0 66 9 66 30 0 23 -9 29 -49 32 -17 1 -31 6 -31 11 0 4
-5 5 -11 1 -14 -8 10 -25 26 -18 5 3 -1 -4 -15 -16 l-25 -23 35 8 c19 4 38 12
41 17 4 6 9 5 14 -2 4 -7 1 -16 -6 -21 -17 -11 -119 -8 -119 4 0 4 -13 1 -30
-8 -81 -42 -119 0 -160 175 -34 147 -99 375 -121 428 -11 26 -27 70 -35 97
l-14 50 4 -45z m356 -714 c0 -3 -4 -8 -10 -11 -5 -3 -10 -1 -10 4 0 6 5 11 10
11 6 0 10 -2 10 -4z"/>
<path d="M605 2420 c-9 -29 2 -56 32 -75 26 -17 171 -47 185 -39 23 15 105
-334 121 -518 4 -47 4 -48 -24 -48 -15 0 -30 -4 -33 -8 -3 -5 8 -6 24 -4 23 3
32 -2 46 -24 35 -55 64 -66 100 -39 17 13 16 14 -18 8 -54 -8 -68 21 -85 170
-14 125 -48 288 -83 407 l-20 66 -85 12 c-47 7 -97 18 -110 24 -26 12 -41 47
-31 73 3 8 1 15 -4 15 -5 0 -12 -9 -15 -20z"/>
<path d="M1361 2349 c-14 -5 -78 -16 -144 -24 -65 -7 -122 -17 -125 -20 -7 -7
126 1 183 11 17 3 38 6 47 8 10 1 21 5 24 9 4 4 16 7 26 7 10 0 18 5 18 10 0
6 -1 10 -2 9 -2 0 -14 -5 -27 -10z"/>
<path d="M2904 2295 c-18 -13 -17 -14 11 -9 16 3 31 7 33 8 1 2 28 -3 60 -10
57 -14 122 -5 122 16 0 5 -13 3 -30 -3 -22 -8 -41 -8 -75 1 -60 16 -97 15
-121 -3z"/>
<path d="M1623 2249 c-18 -5 -37 -18 -43 -30 -6 -11 -15 -17 -19 -15 -20 13
-120 -178 -145 -279 -36 -141 -46 -306 -21 -339 33 -44 104 -53 177 -22 58 25
54 36 -5 14 -58 -22 -117 -20 -147 7 -24 22 -31 85 -19 175 13 100 27 164 51
230 23 64 99 213 105 206 2 -2 -10 -29 -27 -59 -44 -79 -87 -201 -104 -303
-34 -193 -16 -254 74 -254 84 0 190 61 190 110 0 9 9 33 20 55 21 40 19 70 -7
115 -19 33 -3 77 28 82 13 2 31 17 42 35 17 30 18 35 3 64 -17 34 -12 79 9 79
8 0 27 12 44 26 70 58 18 115 -104 113 -38 0 -85 -5 -102 -10z m197 -27 c48
-39 -11 -95 -98 -92 -64 2 -69 1 -52 -10 8 -5 30 -10 47 -10 30 0 32 -2 23
-24 -7 -18 -5 -28 6 -37 9 -7 14 -25 12 -43 -2 -24 -11 -35 -40 -49 -30 -15
-38 -25 -43 -59 -6 -32 -4 -43 9 -50 21 -12 22 -91 1 -108 -8 -7 -15 -24 -15
-37 0 -78 -196 -146 -232 -80 -15 29 -4 174 22 285 14 58 41 131 73 195 62
123 83 137 193 137 54 0 77 -4 94 -18z"/>
<path d="M1728 2178 c-26 -9 -40 -38 -18 -38 6 0 9 6 8 13 -2 8 12 13 40 15
23 2 40 7 37 13 -8 11 -32 10 -67 -3z"/>
<path d="M1590 2055 c-10 -13 -7 -14 26 -12 34 2 39 -1 42 -21 2 -13 -4 -35
-13 -49 -14 -21 -22 -24 -47 -19 -21 4 -28 2 -26 -7 8 -23 56 -20 83 7 26 26
32 64 15 97 -13 23 -62 26 -80 4z"/>
<path d="M1607 2023 c-9 -9 -9 -51 1 -56 4 -3 7 10 8 29 1 37 0 37 -9 27z"/>
<path d="M1727 2013 c-4 -3 -7 -13 -7 -22 1 -13 3 -13 11 2 11 19 8 33 -4 20z"/>
<path d="M1546 1834 c-9 -8 -13 -20 -10 -25 3 -6 11 -3 18 6 35 48 74 -21 41
-71 -18 -27 -37 -31 -55 -9 -7 8 -17 12 -22 9 -14 -9 22 -44 44 -44 32 0 68
45 68 84 0 57 -48 86 -84 50z"/>
<path d="M1665 1799 c-4 -12 -3 -25 2 -29 4 -5 9 4 10 21 3 34 -3 38 -12 8z"/>
<path d="M1554 1785 c-8 -20 2 -45 18 -45 10 0 10 2 -1 9 -8 5 -11 16 -6 30 7
24 -2 29 -11 6z"/>
<path d="M1624 1695 c-4 -8 -13 -15 -21 -15 -8 0 -11 -5 -8 -10 4 -6 11 -8 16
-5 11 8 32 45 24 45 -3 0 -8 -7 -11 -15z"/>
<path d="M1544 1649 c-16 -10 -24 -19 -18 -19 5 0 14 4 20 9 5 5 18 11 29 13
11 2 15 6 9 10 -5 4 -23 -2 -40 -13z"/>
<path d="M1795 2110 c-3 -6 1 -7 9 -4 18 7 21 14 7 14 -6 0 -13 -4 -16 -10z"/>
<path d="M2330 1990 c-143 -39 -180 -52 -174 -62 4 -6 9 -6 13 -1 7 10 159 54
209 60 28 3 32 0 32 -19 0 -13 2 -65 3 -116 2 -86 1 -92 -18 -93 -17 -1 -17
-2 -2 -6 9 -2 17 -12 17 -22 0 -26 42 -61 76 -62 28 -2 28 -2 -6 -9 -27 -6
-16 -8 45 -9 81 -1 113 8 101 28 -4 6 -2 11 3 11 18 0 12 -37 -6 -45 -10 -4
-54 -11 -98 -15 l-80 -7 85 -2 c94 -1 136 15 127 50 -4 14 2 18 31 21 45 4 65
31 38 51 -11 8 -33 14 -50 14 -17 0 -23 -2 -13 -4 18 -5 18 -6 1 -24 -16 -18
-16 -19 8 -19 31 0 41 9 26 27 -8 11 -7 12 6 7 9 -4 16 -14 14 -23 -3 -12 -15
-16 -51 -16 -35 0 -52 -5 -61 -17 -8 -11 -26 -18 -47 -18 l-34 0 33 16 c43 22
41 37 -3 18 -50 -21 -102 -18 -115 5 -5 11 -10 83 -10 160 0 161 8 151 -100
121z"/>
<path d="M3882 1774 c-21 -15 -22 -34 -1 -34 6 0 8 4 4 9 -3 6 3 14 12 20 10
5 15 12 12 15 -3 3 -15 -1 -27 -10z"/>
<path d="M3095 1760 c-3 -5 1 -10 11 -10 25 0 -29 -40 -63 -47 -16 -3 -35 -6
-43 -8 -8 -2 -27 -4 -42 -4 -16 -1 -28 -5 -28 -10 0 -4 15 -7 33 -6 17 1 55 2
82 3 36 2 46 5 35 12 -13 8 -12 10 3 10 9 0 17 -5 17 -10 0 -18 -48 -30 -117
-30 -37 0 -64 -2 -61 -5 2 -3 42 -5 88 -6 70 -1 86 2 97 17 7 10 11 24 9 31
-4 9 5 13 28 13 36 0 62 22 51 41 -4 6 -20 9 -36 7 -16 -3 -29 -1 -29 4 0 11
-28 10 -35 -2z m83 -22 c-3 -7 -22 -14 -44 -14 l-39 -1 38 4 c20 2 35 8 32 14
-4 5 -1 9 5 9 7 0 10 -6 8 -12z"/>
<path d="M2305 1730 c-20 -22 -14 -50 12 -50 17 1 17 1 1 11 -24 14 -12 37 26
48 29 9 30 9 5 10 -14 1 -34 -8 -44 -19z"/>
<path d="M2825 1731 c-15 -14 -2 -31 23 -30 26 2 26 2 2 6 l-24 5 24 13 c25
14 25 14 2 12 -13 -1 -25 -3 -27 -6z"/>
<path d="M3908 1733 c7 -3 16 -2 19 1 4 3 -2 6 -13 5 -11 0 -14 -3 -6 -6z"/>
<path d="M2100 1711 c0 -10 -11 -30 -24 -44 -19 -21 -34 -26 -78 -28 -95 -4
-98 -18 -3 -16 77 2 90 4 89 19 -1 10 4 14 12 11 17 -6 18 -15 2 -31 -16 -16
-210 -16 -226 0 -8 8 -12 8 -12 1 0 -16 20 -21 114 -29 117 -9 182 19 140 61
-14 13 -12 15 16 15 34 0 49 22 30 45 -18 22 -60 19 -60 -4z m50 -1 c21 -13
-1 -33 -31 -27 -21 4 -20 4 5 6 28 1 29 2 10 16 -21 16 -8 20 16 5z"/>
<path d="M3308 1719 c-16 -9 -26 -39 -14 -39 2 0 13 -3 23 -7 16 -6 17 -5 3
11 -13 16 -12 20 5 32 22 16 9 18 -17 3z"/>
<path d="M815 1696 c-16 -12 -17 -16 -6 -30 7 -9 25 -16 40 -15 l26 1 -25 7
c-14 4 -25 13 -25 21 0 8 11 17 25 21 21 6 22 7 4 8 -11 1 -29 -5 -39 -13z"/>
<path d="M1169 1701 c11 -7 7 -12 -20 -19 l-34 -10 37 -1 c43 -1 70 8 62 20
-3 5 -1 9 5 9 16 0 22 -18 9 -27 -7 -4 -29 -13 -48 -18 -24 -7 -30 -13 -20
-17 9 -3 32 1 53 9 30 12 37 20 35 37 -2 17 -11 21 -48 24 -31 2 -41 0 -31 -7z"/>
<path d="M1787 1678 c-6 -18 33 -43 55 -35 7 3 3 6 -10 6 -14 1 -26 10 -31 23
-6 17 -9 18 -14 6z"/>
<path d="M2882 1678 c6 -18 25 -21 31 -5 3 8 -3 13 -15 14 -10 1 -18 -3 -16
-9z"/>
<path d="M2348 1673 c7 -3 16 -2 19 1 4 3 -2 6 -13 5 -11 0 -14 -3 -6 -6z"/>
<path d="M1084 1655 c-11 -7 -38 -16 -62 -20 -52 -8 -50 -24 4 -40 50 -15 72
-12 96 13 33 32 -1 74 -38 47z m33 -29 c-2 -6 -29 -11 -63 -12 l-59 -1 53 4
c41 3 52 7 48 18 -3 9 0 12 10 8 8 -3 13 -11 11 -17z"/>
<path d="M2400 1639 c0 -5 9 -9 20 -9 11 0 20 2 20 4 0 2 -9 6 -20 9 -11 3
-20 1 -20 -4z"/>
<path d="M880 1630 c0 -5 5 -10 10 -10 6 0 10 5 10 10 0 6 -4 10 -10 10 -5 0
-10 -4 -10 -10z"/>
<path d="M1730 1630 c11 -7 9 -11 -14 -20 -36 -13 -31 -19 12 -13 24 4 32 10
28 20 -4 9 -1 13 6 11 7 -3 13 -11 13 -18 0 -16 -45 -30 -100 -31 -23 -1 -54
-11 -75 -25 -26 -17 -53 -25 -94 -27 l-58 -2 39 -18 c64 -30 178 -7 189 39 4
17 15 23 51 27 80 9 103 67 26 67 -27 0 -34 -3 -23 -10z m-70 -80 c0 -26 -122
-59 -150 -40 -11 7 -3 10 32 10 54 0 98 17 98 37 0 8 5 11 10 8 6 -3 10 -10
10 -15z"/>
<path d="M1323 1620 c-32 -13 -29 -22 3 -10 14 6 30 8 35 4 5 -3 9 0 9 5 0 13
-17 13 -47 1z"/>
<path d="M1275 1597 c-8 -19 -2 -31 13 -26 5 2 6 13 2 24 -7 19 -8 19 -15 2z"/>
<path d="M1320 1541 c0 -5 7 -12 16 -15 23 -9 92 -7 98 2 3 5 -12 8 -32 7 -20
-1 -47 2 -59 6 -13 5 -23 5 -23 0z"/>
</g>
</svg>
